<svg fill="none" height="89" viewBox="0 0 90 89" width="90" xmlns="http://www.w3.org/2000/svg" xmlns:xlink="http://www.w3.org/1999/xlink"><radialGradient id="a" cx="0" cy="0" gradientTransform="matrix(62.1407 0 0 61.2673 30.8939 21.9444)" gradientUnits="userSpaceOnUse" r="1"><stop offset="0" stop-color="#442f55" stop-opacity=".98"/><stop offset="1" stop-color="#12002c"/></radialGradient><path d="m3.94141 3.7832h81.76049v81.0049h-81.76049z" fill="url(#a)"/><path d="m3.94141 3.78375h81.76049v81.00485h-81.76049zm-3.71558 84.78865h89.20957v-88.5724h-89.20957zm63.11117-45.8779c1.8935 0 2.5723 0 2.751-.0728 0-.2729.0714-.4548.0714-.6367 0-2.0374-.9646-5.8211-4.8231-5.8211-3.5726 0-5.091 3.1834-5.4662 6.5488h7.4669zm-7.5383 5.1844c.0714 5.1117 2.4473 8.5498 8.1099 8.5498 2.1972 0 4.0908-.3092 6.0557-1.1642.268-.1091.4466-.0728.4466.2729v4.7297c0 .382-.1072.5639-.3751.764-1.965.9823-4.4301 1.4371-7.4669 1.4371-9.807 0-13.4868-7.3856-13.4868-15.5898 0-8.9318 4.5373-16.2446 12.5222-16.2446 8.1099 0 10.9323 6.9308 10.9323 12.57 0 1.8191-.1071 3.2926-.3036 4.0203-.0715.3092-.1787.4183-.4823.4911-.7503.1092-2.9296.2729-6.1986.2729h-9.7355v-.1092zm-19.9355-3.8565c-1.0361-4.2021-3.5727-13.3522-4.5016-17.7909h-.0714c-.786 4.4205-2.8224 11.9152-4.3408 17.7909zm-10.4322 6.1304-2.9296 11.3149c-.0714.3092-.1786.4184-.5537.4184h-5.4841c-.3751 0-.4466-.1092-.3751-.564l10.5572-37.5827c.1786-.6731.3037-1.2188.3751-3.1107 0-.2729.1072-.382.3037-.382h7.8063c.268 0 .3751.0727.4466.382l11.8077 40.7662c.0714.3093 0 .4912-.3037.4912h-6.1271c-.3037 0-.4824-.1092-.5538-.382l-3.0546-11.3513z" fill="#d8a1ff"/></svg>