<svg fill="none" height="89" viewBox="0 0 91 89" width="91" xmlns="http://www.w3.org/2000/svg" xmlns:xlink="http://www.w3.org/1999/xlink"><radialGradient id="a" cx="0" cy="0" gradientTransform="matrix(62.1406 0 0 61.2673 31.5396 21.9605)" gradientUnits="userSpaceOnUse" r="1"><stop offset="0" stop-color="#423325" stop-opacity=".98"/><stop offset="1" stop-color="#1c0a00"/></radialGradient><path d="m4.58496 3.7832h81.76044v81.0049h-81.76044z" fill="url(#a)"/><path d="m4.58496 3.78375h81.76044v81.00485h-81.76044zm-3.715575 84.78865h89.209515v-88.5724h-89.209515zm58.430915-56.9927c0-.3092.1072-.4548.4466-.4548h5.8413c.3037 0 .4466.1092.4466.4548v29.8698c0 .3092-.0714.4548-.4466.4548h-5.7698c-.3752 0-.4823-.1819-.4823-.4912v-29.8334zm-.4108-8.6044c0-2.4194 1.6791-3.8565 3.787-3.8565 2.2687 0 3.787 1.5463 3.787 3.8565 0 2.4922-1.5898 3.8566-3.8584 3.8566-2.1436.0181-3.7156-1.3462-3.7156-3.8566zm-16.7201 21.0471c-1.0361-4.2021-3.5012-13.3522-4.4301-17.7909h-.0715c-.7859 4.4205-2.7509 11.9152-4.305 17.7909zm-10.325 6.1304-2.9296 11.3513c-.0714.3092-.1786.382-.5538.382h-5.4661c-.3752 0-.4466-.1092-.3752-.564l10.5573-37.6191c.1786-.6731.3036-1.2916.3751-3.1471 0-.2728.1072-.382.3037-.382h7.8062c.268 0 .3752.0728.4466.382l11.8256 40.839c.0714.3093 0 .4912-.3037.4912h-6.1629c-.3036 0-.4823-.0728-.5537-.3457l-3.0547-11.3876z" fill="#ff7f18"/></svg>