<svg fill="none" height="89" viewBox="0 0 59 89" width="59" xmlns="http://www.w3.org/2000/svg" xmlns:xlink="http://www.w3.org/1999/xlink"><clipPath id="a"><path d="m.652832 0h58.2524v88.9906h-58.2524z"/></clipPath><g clip-path="url(#a)"><path d="m15.2115 88.9903c8.0385 0 14.5586-6.6398 14.5586-14.8257v-14.8257h-14.5586c-8.03854 0-14.558668 6.6397-14.558668 14.8257 0 8.1859 6.520128 14.8257 14.558668 14.8257z" fill="#0acf83"/><path d="m.652832 44.4956c0-8.1859 6.520128-14.8257 14.558668-14.8257h14.5586v29.6696h-14.5586c-8.03854-.0182-14.558668-6.6579-14.558668-14.8439z" fill="#a259ff"/><path d="m.652832 14.8257c0-8.18597 6.520128-14.8257 14.558668-14.8257h14.5586v29.6696h-14.5586c-8.03854 0-14.558668-6.6579-14.558668-14.8439z" fill="#f24e1e"/><path d="m29.7881 0h14.5586c8.0385 0 14.5587 6.63973 14.5587 14.8257 0 8.186-6.5202 14.8257-14.5587 14.8257h-14.5586z" fill="#ff7262"/><path d="m58.9054 44.4956c0 8.186-6.5202 14.8257-14.5587 14.8257s-14.5586-6.6397-14.5586-14.8257c0-8.1859 6.5201-14.8257 14.5586-14.8257s14.5587 6.6398 14.5587 14.8257z" fill="#1abcfe"/></g></svg>