<svg fill="none" height="89" viewBox="0 0 90 89" width="90" xmlns="http://www.w3.org/2000/svg" xmlns:xlink="http://www.w3.org/1999/xlink"><radialGradient id="a" cx="0" cy="0" gradientTransform="matrix(62.0565 0 0 61.1565 31.1305 21.9191)" gradientUnits="userSpaceOnUse" r="1"><stop offset="0" stop-color="#34364e" stop-opacity=".98"/><stop offset="1" stop-color="#0c0824"/></radialGradient><path d="m4.22607 3.7793h81.66543v80.8546h-81.66543z" fill="url(#a)"/><path d="m4.22606 3.77927h81.66534v80.85453h-81.66534zm-3.712876 84.63383h89.073216v-88.4131h-89.073216zm60.066416-52.1285c-2.9274 0-3.9271 1.5081-3.9271 2.7618 0 1.3627.6605 2.3075 4.6054 4.3789 5.8192 2.8707 7.64 5.6325 7.64 9.6662 0 6.0504-4.534 9.3028-10.6567 9.3028-3.2309 0-6.0155-.6723-7.6042-1.6171-.2678-.109-.3035-.3089-.3035-.5996v-5.5781c0-.3815.1785-.4905.4463-.3089 2.3384 1.5445 5.0159 2.2349 7.4614 2.2349 2.9275 0 4.1592-1.2537 4.1592-2.9435 0-1.3627-.8569-2.5619-4.6054-4.5424-5.2659-2.5619-7.4615-5.1601-7.4615-9.5208 0-4.8694 3.7486-8.9213 10.2461-8.9213 3.1952 0 5.4265.4906 6.6404 1.0539.3034.1817.3748.4906.3748.7631v5.1783c0 .3089-.1785.4906-.5533.3816-1.6423-1.0539-4.0521-1.6898-6.4619-1.6898zm-31.9164 4.4879c.8568.0727 1.5173.0727 2.9988.0727 4.3377 0 8.4254-1.5444 8.4254-7.5586 0-4.7967-2.9274-7.2133-7.872-7.2133-1.4816 0-2.8917.0727-3.5701.109zm-6.6225-20.0592c0-.2725.5177-.4542.8211-.4542 2.3741-.1091 5.9085-.1817 9.5678-.1817 10.2818 0 14.2981 5.7415 14.2981 13.0639 0 9.5935-6.8366 13.718-15.2263 13.718-1.4102 0-1.8921-.0727-2.8918-.0727v14.4993c0 .3089-.1071.4543-.4462.4543h-5.6764c-.3035 0-.4463-.1091-.4463-.4543z" fill="#31c5f0"/></svg>